<?xml version="1.0" standalone="no"?>
<!DOCTYPE svg PUBLIC "-//W3C//DTD SVG 20010904//EN"
 "http://www.w3.org/TR/2001/REC-SVG-20010904/DTD/svg10.dtd">
<svg version="1.0" xmlns="http://www.w3.org/2000/svg"
 width="70.000000pt" height="70.000000pt" viewBox="0 0 70.000000 70.000000"
 preserveAspectRatio="xMidYMid meet">
<metadata>
Created by potrace 1.14, written by Peter Selinger 2001-2017
</metadata>
<g transform="translate(0.000000,70.000000) scale(0.100000,-0.100000)"
fill="#000000" stroke="none">
<path d="M294 642 c-53 -53 -60 -56 -108 -58 -28 -2 -54 -3 -58 -3 -5 -1 -8
-26 -8 -57 0 -54 -1 -57 -55 -110 -30 -30 -55 -58 -55 -62 0 -4 25 -32 55 -62
54 -53 55 -55 55 -112 l0 -58 57 0 c56 0 58 -1 115 -57 l58 -57 58 57 c57 56
59 57 115 57 63 0 59 -5 59 81 0 31 8 45 54 90 30 29 54 57 54 61 0 4 -25 33
-55 64 -53 53 -56 58 -54 102 1 26 1 52 0 57 0 6 -27 10 -58 9 -56 0 -58 0
-115 57 l-58 58 -56 -57z"/>
</g>
</svg>
