<?xml version="1.0" standalone="no"?>
<!DOCTYPE svg PUBLIC "-//W3C//DTD SVG 20010904//EN"
 "http://www.w3.org/TR/2001/REC-SVG-20010904/DTD/svg10.dtd">
<svg version="1.0" xmlns="http://www.w3.org/2000/svg"
 width="70.000000pt" height="70.000000pt" viewBox="0 0 70.000000 70.000000"
 preserveAspectRatio="xMidYMid meet">
<metadata>
Created by potrace 1.14, written by Peter Selinger 2001-2017
</metadata>
<g transform="translate(0.000000,70.000000) scale(0.100000,-0.100000)"
fill="#000000" stroke="none">
<path d="M297 674 c-1 -1 -27 -5 -57 -8 -101 -12 -187 -70 -211 -143 -6 -20
-9 -57 -7 -84 7 -74 44 -118 144 -174 52 -29 81 -52 76 -57 -19 -19 -135 -12
-186 11 -27 11 -50 21 -53 21 -5 0 7 -92 23 -162 8 -39 91 -69 212 -76 221
-12 359 81 354 239 -2 63 -63 125 -162 163 -58 23 -90 49 -77 62 16 16 125 22
198 10 37 -5 48 15 43 83 -6 84 -9 88 -61 95 -27 4 -61 9 -78 11 -34 6 -154
13 -158 9z"/>
<path d="M692 250 c0 -14 2 -19 5 -12 2 6 2 18 0 25 -3 6 -5 1 -5 -13z"/>
</g>
</svg>
